<mxfile host="65bd71144e">
    <diagram name="Page-1" id="DwPut0c9DBWOL_JDsGFa">
        <mxGraphModel dx="1726" dy="1592" grid="1" gridSize="10" guides="1" tooltips="1" connect="1" arrows="1" fold="1" page="1" pageScale="1" pageWidth="850" pageHeight="1100" background="light-dark(#ffffff, #ededed)" math="0" shadow="0">
            <root>
                <mxCell id="0"/>
                <mxCell id="1" parent="0"/>
                <mxCell id="sMQkH5oFB8gbC26xZ5uH-1" value="Movie Save app" style="swimlane;fontStyle=0;childLayout=stackLayout;horizontal=1;startSize=30;horizontalStack=0;resizeParent=1;resizeParentMax=0;resizeLast=0;collapsible=1;marginBottom=0;whiteSpace=wrap;html=1;fontFamily=Lucida Console;textShadow=1;" parent="1" vertex="1">
                    <mxGeometry x="120" y="-260" width="140" height="120" as="geometry"/>
                </mxCell>
                <mxCell id="sMQkH5oFB8gbC26xZ5uH-5" value="Output Func" style="text;strokeColor=none;fillColor=none;align=left;verticalAlign=middle;spacingLeft=4;spacingRight=4;overflow=hidden;points=[[0,0.5],[1,0.5]];portConstraint=eastwest;rotatable=0;whiteSpace=wrap;html=1;fontFamily=Lucida Console;textShadow=1;" parent="sMQkH5oFB8gbC26xZ5uH-1" vertex="1">
                    <mxGeometry y="30" width="140" height="30" as="geometry"/>
                </mxCell>
                <mxCell id="sMQkH5oFB8gbC26xZ5uH-3" value="input Func" style="text;strokeColor=none;fillColor=none;align=left;verticalAlign=middle;spacingLeft=4;spacingRight=4;overflow=hidden;points=[[0,0.5],[1,0.5]];portConstraint=eastwest;rotatable=0;whiteSpace=wrap;html=1;fontFamily=Lucida Console;textShadow=1;" parent="sMQkH5oFB8gbC26xZ5uH-1" vertex="1">
                    <mxGeometry y="60" width="140" height="30" as="geometry"/>
                </mxCell>
                <mxCell id="sMQkH5oFB8gbC26xZ5uH-4" value="running Func" style="text;strokeColor=none;fillColor=none;align=left;verticalAlign=middle;spacingLeft=4;spacingRight=4;overflow=hidden;points=[[0,0.5],[1,0.5]];portConstraint=eastwest;rotatable=0;whiteSpace=wrap;html=1;fontFamily=Lucida Console;textShadow=1;" parent="sMQkH5oFB8gbC26xZ5uH-1" vertex="1">
                    <mxGeometry y="90" width="140" height="30" as="geometry"/>
                </mxCell>
                <mxCell id="sMQkH5oFB8gbC26xZ5uH-23" value="usage" style="text;html=1;align=center;verticalAlign=middle;whiteSpace=wrap;rounded=0;fontFamily=Lucida Console;textShadow=1;" parent="1" vertex="1">
                    <mxGeometry x="-40" y="-140" width="60" height="30" as="geometry"/>
                </mxCell>
                <mxCell id="sMQkH5oFB8gbC26xZ5uH-24" style="edgeStyle=orthogonalEdgeStyle;rounded=0;orthogonalLoop=1;jettySize=auto;html=1;exitX=1;exitY=0.5;exitDx=0;exitDy=0;entryX=0;entryY=0.5;entryDx=0;entryDy=0;fontFamily=Lucida Console;textShadow=1;" parent="1" source="sMQkH5oFB8gbC26xZ5uH-3" target="sMQkH5oFB8gbC26xZ5uH-30" edge="1">
                    <mxGeometry relative="1" as="geometry">
                        <mxPoint x="-90" y="-180" as="targetPoint"/>
                        <Array as="points">
                            <mxPoint x="280" y="-185"/>
                            <mxPoint x="280" y="-90"/>
                            <mxPoint x="-290" y="-90"/>
                            <mxPoint x="-290" y="-200"/>
                        </Array>
                    </mxGeometry>
                </mxCell>
                <mxCell id="sMQkH5oFB8gbC26xZ5uH-28" value="storage" style="text;html=1;align=center;verticalAlign=middle;whiteSpace=wrap;rounded=0;fontFamily=Lucida Console;textShadow=1;" parent="1" vertex="1">
                    <mxGeometry x="-40" y="-90" width="60" height="30" as="geometry"/>
                </mxCell>
                <mxCell id="sMQkH5oFB8gbC26xZ5uH-31" value=".title" style="edgeStyle=orthogonalEdgeStyle;rounded=0;orthogonalLoop=1;jettySize=auto;html=1;exitX=1;exitY=0.5;exitDx=0;exitDy=0;entryX=0;entryY=0.5;entryDx=0;entryDy=0;fontFamily=Lucida Console;textShadow=1;" parent="1" source="sMQkH5oFB8gbC26xZ5uH-30" target="sMQkH5oFB8gbC26xZ5uH-3" edge="1">
                    <mxGeometry relative="1" as="geometry">
                        <mxPoint y="-230" as="targetPoint"/>
                        <Array as="points">
                            <mxPoint x="-90" y="-200"/>
                            <mxPoint x="-90" y="-230"/>
                            <mxPoint x="70" y="-230"/>
                            <mxPoint x="70" y="-185"/>
                        </Array>
                    </mxGeometry>
                </mxCell>
                <mxCell id="sMQkH5oFB8gbC26xZ5uH-32" value=".year" style="edgeStyle=orthogonalEdgeStyle;rounded=0;orthogonalLoop=1;jettySize=auto;html=1;exitX=1;exitY=0.5;exitDx=0;exitDy=0;entryX=0;entryY=0.5;entryDx=0;entryDy=0;fontFamily=Lucida Console;textShadow=1;" parent="1" source="sMQkH5oFB8gbC26xZ5uH-30" target="sMQkH5oFB8gbC26xZ5uH-3" edge="1">
                    <mxGeometry relative="1" as="geometry"/>
                </mxCell>
                <mxCell id="sMQkH5oFB8gbC26xZ5uH-33" value=".price" style="edgeStyle=orthogonalEdgeStyle;rounded=0;orthogonalLoop=1;jettySize=auto;html=1;exitX=1;exitY=0.5;exitDx=0;exitDy=0;fontFamily=Lucida Console;textShadow=1;" parent="1" source="sMQkH5oFB8gbC26xZ5uH-30" target="sMQkH5oFB8gbC26xZ5uH-4" edge="1">
                    <mxGeometry relative="1" as="geometry">
                        <Array as="points">
                            <mxPoint x="-90" y="-200"/>
                            <mxPoint x="-90" y="-155"/>
                        </Array>
                    </mxGeometry>
                </mxCell>
                <mxCell id="sMQkH5oFB8gbC26xZ5uH-38" value="storing" style="edgeStyle=orthogonalEdgeStyle;rounded=0;orthogonalLoop=1;jettySize=auto;html=1;exitX=0.5;exitY=0;exitDx=0;exitDy=0;entryX=0.5;entryY=1;entryDx=0;entryDy=0;fontFamily=Lucida Console;" parent="1" source="sMQkH5oFB8gbC26xZ5uH-30" target="sMQkH5oFB8gbC26xZ5uH-37" edge="1">
                    <mxGeometry x="0.25" relative="1" as="geometry">
                        <mxPoint as="offset"/>
                    </mxGeometry>
                </mxCell>
                <mxCell id="sMQkH5oFB8gbC26xZ5uH-30" value="Movie(Objectof M_info&lt;span style=&quot;background-color: transparent; color: light-dark(rgb(0, 0, 0), rgb(255, 255, 255));&quot;&gt;)&lt;/span&gt;" style="rounded=1;whiteSpace=wrap;html=1;fontFamily=Lucida Console;textShadow=1;" parent="1" vertex="1">
                    <mxGeometry x="-255" y="-230" width="120" height="60" as="geometry"/>
                </mxCell>
                <mxCell id="8" value="&lt;font face=&quot;Lucida Console&quot;&gt;Saving&lt;/font&gt;" style="edgeStyle=none;html=1;exitX=0.25;exitY=0;exitDx=0;exitDy=0;entryX=0.25;entryY=1;entryDx=0;entryDy=0;" edge="1" parent="1" source="sMQkH5oFB8gbC26xZ5uH-37" target="7">
                    <mxGeometry x="0.5385" relative="1" as="geometry">
                        <mxPoint as="offset"/>
                    </mxGeometry>
                </mxCell>
                <mxCell id="sMQkH5oFB8gbC26xZ5uH-37" value="vector&lt;div&gt;(Type: M_info)&lt;/div&gt;" style="shape=internalStorage;whiteSpace=wrap;html=1;backgroundOutline=1;fontFamily=Lucida Console;" parent="1" vertex="1">
                    <mxGeometry x="-235" y="-390" width="80" height="80" as="geometry"/>
                </mxCell>
                <mxCell id="2" value="" style="group" vertex="1" connectable="0" parent="1">
                    <mxGeometry x="-460" y="-509" width="90" height="150" as="geometry"/>
                </mxCell>
                <mxCell id="sMQkH5oFB8gbC26xZ5uH-8" value="M_info" style="swimlane;whiteSpace=wrap;html=1;fontFamily=Lucida Console;textShadow=1;container=0;" parent="2" vertex="1">
                    <mxGeometry y="30" width="90" height="120" as="geometry"/>
                </mxCell>
                <mxCell id="sMQkH5oFB8gbC26xZ5uH-29" value="Class" style="text;html=1;align=center;verticalAlign=middle;whiteSpace=wrap;rounded=0;fontFamily=Lucida Console;container=0;" parent="2" vertex="1">
                    <mxGeometry x="15" width="60" height="30" as="geometry">
                        <mxRectangle x="-435" y="-510" width="80" height="30" as="alternateBounds"/>
                    </mxGeometry>
                </mxCell>
                <mxCell id="sMQkH5oFB8gbC26xZ5uH-11" value="title" style="text;html=1;align=center;verticalAlign=middle;whiteSpace=wrap;rounded=0;fontFamily=Lucida Console;textShadow=1;" parent="2" vertex="1">
                    <mxGeometry y="60" width="90" height="30" as="geometry"/>
                </mxCell>
                <mxCell id="sMQkH5oFB8gbC26xZ5uH-10" value="year" style="text;html=1;align=center;verticalAlign=middle;whiteSpace=wrap;rounded=0;fontFamily=Lucida Console;textShadow=1;" parent="2" vertex="1">
                    <mxGeometry y="90" width="90" height="30" as="geometry"/>
                </mxCell>
                <mxCell id="sMQkH5oFB8gbC26xZ5uH-13" value="price" style="text;html=1;align=center;verticalAlign=middle;whiteSpace=wrap;rounded=0;fontFamily=Lucida Console;textShadow=1;" parent="2" vertex="1">
                    <mxGeometry y="120" width="90" height="30" as="geometry"/>
                </mxCell>
                <mxCell id="3" value="fetchi&lt;span style=&quot;background-color: light-dark(#ffffff, var(--ge-dark-color, #121212));&quot;&gt;ng&lt;/span&gt;" style="edgeStyle=none;html=1;exitX=0.75;exitY=1;exitDx=0;exitDy=0;entryX=0.672;entryY=0.02;entryDx=0;entryDy=0;entryPerimeter=0;fontFamily=Lucida Console;" edge="1" parent="1" source="sMQkH5oFB8gbC26xZ5uH-37" target="sMQkH5oFB8gbC26xZ5uH-30">
                    <mxGeometry x="0.4779" relative="1" as="geometry">
                        <mxPoint as="offset"/>
                    </mxGeometry>
                </mxCell>
                <mxCell id="5" value="Appilication" style="swimlane;startSize=0;fontFamily=Lucida Console;" vertex="1" parent="1">
                    <mxGeometry x="-470" y="-520" width="770" height="440" as="geometry"/>
                </mxCell>
                <mxCell id="9" value="Loading" style="edgeStyle=none;html=1;exitX=0.75;exitY=1;exitDx=0;exitDy=0;entryX=0.75;entryY=0;entryDx=0;entryDy=0;" edge="1" parent="1" source="7" target="sMQkH5oFB8gbC26xZ5uH-37">
                    <mxGeometry x="0.3846" relative="1" as="geometry">
                        <mxPoint y="1" as="offset"/>
                    </mxGeometry>
                </mxCell>
                <mxCell id="7" value="Computer storage&lt;div&gt;(.TXT)&lt;/div&gt;" style="shape=internalStorage;whiteSpace=wrap;html=1;backgroundOutline=1;" vertex="1" parent="1">
                    <mxGeometry x="-235" y="-600" width="80" height="80" as="geometry"/>
                </mxCell>
            </root>
        </mxGraphModel>
    </diagram>
</mxfile>